HIERARCHY
ROOT Hips
{
	OFFSET	0.00	0.00	0.00
	CHANNELS 6 Xposition Yposition Zposition Zrotation Xrotation Yrotation
	JOINT LeftUpperLeg
	{
		OFFSET	-0.060319	-0.072984	 0.002079
		CHANNELS 3 Zrotation Xrotation Yrotation
		JOINT LeftLowerLeg
		{
			OFFSET	 0.351798	-0.005146	-0.008011
			CHANNELS 3 Zrotation Xrotation Yrotation
			JOINT LeftFoot
			{
				OFFSET	 0.378666	 0.003778	 0.003828
				CHANNELS 3 Zrotation Xrotation Yrotation
				JOINT LeftToes
				{
					OFFSET	 0.084296	 0.003922	 0.047710
					CHANNELS 3 Zrotation Xrotation Yrotation
					End Site
					{
						OFFSET	 0.084296	 0.003922	 0.047710
					}
				}
			}
		}
	}
	JOINT RightUpperLeg
	{
		OFFSET	-0.060836	 0.072553	 0.002079
		CHANNELS 3 Zrotation Xrotation Yrotation
		JOINT RightLowerLeg
		{
			OFFSET	 0.351363	 0.018233	-0.008011
			CHANNELS 3 Zrotation Xrotation Yrotation
			JOINT RightFoot
			{
				OFFSET	 0.378545	 0.010315	 0.003824
				CHANNELS 3 Zrotation Xrotation Yrotation
				JOINT RightToes
				{
					OFFSET	 0.084392	-0.002027	 0.047660
					CHANNELS 3 Zrotation Xrotation Yrotation
					End Site
					{
						OFFSET	 0.084392	-0.002027	 0.047660
					}
				}
			}
		}
	}
	JOINT Character1_Spine
	{
		OFFSET	 0.022713	 0.000080	 0.008181
		CHANNELS 3 Zrotation Xrotation Yrotation
		JOINT Spine
		{
			OFFSET	 0.091343	 0.000000	 0.001755
			CHANNELS 3 Zrotation Xrotation Yrotation
			JOINT Chest
			{
				OFFSET	 0.087667	 0.000000	-0.000304
				CHANNELS 3 Zrotation Xrotation Yrotation
				JOINT LeftShoulder
				{
					OFFSET	 0.122367	-0.042227	-0.001395
					CHANNELS 3 Zrotation Xrotation Yrotation
					JOINT LeftUpperArm
					{
						OFFSET	 0.055437	-0.000001	 0.000000
						CHANNELS 3 Zrotation Xrotation Yrotation
						JOINT LeftLowerArm
						{
							OFFSET	 0.233777	-0.000011	 0.000017
							CHANNELS 3 Zrotation Xrotation Yrotation
							JOINT LeftHand
							{
								OFFSET	 0.162482	 0.000000	-0.000001
								CHANNELS 3 Zrotation Xrotation Yrotation
								JOINT LeftIndexProximal
								{
									OFFSET	 0.080750	 0.001428	 0.025713
									CHANNELS 3 Zrotation Xrotation Yrotation
									JOINT LeftIndexIntermediate
									{
										OFFSET	 0.024260	 0.001187	 0.002507
										CHANNELS 3 Zrotation Xrotation Yrotation
										JOINT LeftIndexDistal
										{
											OFFSET	 0.016097	 0.000458	 0.000118
											CHANNELS 3 Zrotation Xrotation Yrotation
											End Site
											{
												OFFSET	 0.016097	 0.000458	 0.000118
											}
										}
									}
								}
								JOINT LeftMiddleProximal
								{
									OFFSET	 0.080696	 0.006021	 0.005822
									CHANNELS 3 Zrotation Xrotation Yrotation
									JOINT LeftMiddleIntermediate
									{
										OFFSET	 0.025063	-0.003793	 0.001482
										CHANNELS 3 Zrotation Xrotation Yrotation
										JOINT LeftMiddleDistal
										{
											OFFSET	 0.019431	-0.000162	-0.000068
											CHANNELS 3 Zrotation Xrotation Yrotation
											End Site
											{
												OFFSET	 0.019431	-0.000162	-0.000068
											}
										}
									}
								}
								JOINT LeftLittleProximal
								{
									OFFSET	 0.065753	 0.002283	-0.027836
									CHANNELS 3 Zrotation Xrotation Yrotation
									JOINT LeftLittleIntermediate
									{
										OFFSET	 0.018097	 0.000014	 0.000133
										CHANNELS 3 Zrotation Xrotation Yrotation
										JOINT LeftLittleDistal
										{
											OFFSET	 0.013911	-0.000247	 0.000003
											CHANNELS 3 Zrotation Xrotation Yrotation
											End Site
											{
												OFFSET	 0.013911	-0.000247	 0.000003
											}
										}
									}
								}
								JOINT LeftRingProximal
								{
									OFFSET	 0.076793	 0.006246	-0.012626
									CHANNELS 3 Zrotation Xrotation Yrotation
									JOINT LeftRingIntermediate
									{
										OFFSET	 0.023683	-0.001098	-0.000754
										CHANNELS 3 Zrotation Xrotation Yrotation
										JOINT LeftRingDistal
										{
											OFFSET	 0.015907	 0.000860	 0.000167
											CHANNELS 3 Zrotation Xrotation Yrotation
											End Site
											{
												OFFSET	 0.015907	 0.000860	 0.000167
											}
										}
									}
								}
								JOINT LeftThumbProximal
								{
									OFFSET	 0.024761	-0.014236	 0.018266
									CHANNELS 3 Zrotation Xrotation Yrotation
									JOINT LeftThumbIntermediate
									{
										OFFSET	 0.032146	-0.001523	 0.001986
										CHANNELS 3 Zrotation Xrotation Yrotation
										JOINT LeftThumbDistal
										{
											OFFSET	 0.017566	-0.000085	-0.001004
											CHANNELS 3 Zrotation Xrotation Yrotation
											End Site
											{
												OFFSET	 0.017566	-0.000085	-0.001004
											}
										}
									}
								}
							}
						}
					}
				}
				JOINT Neck
				{
					OFFSET	 0.156851	-0.000286	 0.008298
					CHANNELS 3 Zrotation Xrotation Yrotation
					JOINT Head
					{
						OFFSET	 0.078083	 0.000000	-0.005534
						CHANNELS 3 Zrotation Xrotation Yrotation
						End Site
						{
							OFFSET	 0.078083	 0.000000	-0.005534
						}
					}
				}
				JOINT RightShoulder
				{
					OFFSET	 0.122455	 0.041994	-0.000150
					CHANNELS 3 Zrotation Xrotation Yrotation
					JOINT RightUpperArm
					{
						OFFSET	 0.055437	 0.000001	 0.000000
						CHANNELS 3 Zrotation Xrotation Yrotation
						JOINT RightLowerArm
						{
							OFFSET	 0.233779	 0.000012	 0.000017
							CHANNELS 3 Zrotation Xrotation Yrotation
							JOINT RightHand
							{
								OFFSET	 0.162480	-0.000002	-0.000001
								CHANNELS 3 Zrotation Xrotation Yrotation
								JOINT RightIndexProximal
								{
									OFFSET	 0.077459	-0.023877	 0.024774
									CHANNELS 3 Zrotation Xrotation Yrotation
									JOINT RightIndexIntermediate
									{
										OFFSET	 0.024233	 0.002008	-0.002230
										CHANNELS 3 Zrotation Xrotation Yrotation
										JOINT RightIndexDistal
										{
											OFFSET	 0.015886	 0.002643	 0.000001
											CHANNELS 3 Zrotation Xrotation Yrotation
											End Site
											{
												OFFSET	 0.015886	 0.002643	 0.000001
											}
										}
									}
								}
								JOINT RightMiddleProximal
								{
									OFFSET	 0.077341	-0.024111	 0.004360
									CHANNELS 3 Zrotation Xrotation Yrotation
									JOINT RightMiddleIntermediate
									{
										OFFSET	 0.025355	-0.001169	-0.000680
										CHANNELS 3 Zrotation Xrotation Yrotation
										JOINT RightMiddleDistal
										{
											OFFSET	 0.019416	 0.000705	-0.000417
											CHANNELS 3 Zrotation Xrotation Yrotation
											End Site
											{
												OFFSET	 0.019416	 0.000705	-0.000417
											}
										}
									}
								}
								JOINT RightLittleProximal
								{
									OFFSET	 0.065019	-0.010365	-0.027722
									CHANNELS 3 Zrotation Xrotation Yrotation
									JOINT RightLittleIntermediate
									{
										OFFSET	 0.018098	 0.000052	-0.000144
										CHANNELS 3 Zrotation Xrotation Yrotation
										JOINT RightLittleDistal
										{
											OFFSET	 0.013886	-0.000828	 0.000267
											CHANNELS 3 Zrotation Xrotation Yrotation
											End Site
											{
												OFFSET	 0.013886	-0.000828	 0.000267
											}
										}
									}
								}
								JOINT RightRingProximal
								{
									OFFSET	 0.074304	-0.019655	-0.013711
									CHANNELS 3 Zrotation Xrotation Yrotation
									JOINT RightRingIntermediate
									{
										OFFSET	 0.023458	 0.003508	-0.000008
										CHANNELS 3 Zrotation Xrotation Yrotation
										JOINT RightRingDistal
										{
											OFFSET	 0.015893	-0.000379	-0.001033
											CHANNELS 3 Zrotation Xrotation Yrotation
											End Site
											{
												OFFSET	 0.015893	-0.000379	-0.001033
											}
										}
									}
								}
								JOINT RightThumbProximal
								{
									OFFSET	 0.026339	 0.004527	 0.020861
									CHANNELS 3 Zrotation Xrotation Yrotation
									JOINT RightThumbIntermediate
									{
										OFFSET	 0.032030	-0.000602	 0.001128
										CHANNELS 3 Zrotation Xrotation Yrotation
										JOINT RightThumbDistal
										{
											OFFSET	 0.017586	-0.000153	 0.000511
											CHANNELS 3 Zrotation Xrotation Yrotation
											End Site
											{
												OFFSET	 0.017586	-0.000153	 0.000511
											}
										}
									}
								}
							}
						}
					}
				}
			}
		}
	}
}
MOTION
Frames:    4
Frame Time: 0.01666667
-5.516243	 4.741056	 0.660246	 177.031100	 0.493286	-101.362200	-144.084700	-24.461880	-37.582150	-6.488094	-0.236165	 72.635220	-33.975220	 14.626340	-48.241210	-3.107412	-0.856767	-69.868960	 137.394300	 36.231820	-35.547580	-0.993105	 7.967438	 65.533760	 31.024030	 0.970049	-25.997650	 0.002199	-0.006480	-70.026720	 0.203542	 0.000000	-4.902169	 1.848174	-13.489040	 2.675560	-1.778641	-1.999201	 11.148360	-92.212720	 17.910150	 10.297630	-35.734800	-14.529050	 41.195470	-11.435230	-29.083030	-89.272210	-11.971000	-22.435480	-3.039865	-8.896020	 5.430680	-13.875970	-23.417210	-0.284451	-0.522177	-8.590560	-0.508650	 0.721897	 17.787620	 3.421024	-2.924270	-55.127630	-3.484097	 4.202457	-9.297432	-1.406721	 4.599977	-24.451960	-15.440660	 29.993330	-27.317140	 0.773370	 16.104550	-10.222600	 1.606559	 4.342858	-14.234260	-7.375252	 17.247290	-26.629130	 0.614902	 8.072429	-9.052202	-3.882913	 3.605950	 99.071870	 35.044150	-132.876400	-16.626320	 0.287700	-9.167921	-23.856740	-1.024818	-0.435460	-7.939586	 0.594864	-40.183380	-55.174390	 42.914230	 74.204220	 93.594270	-18.038600	 2.310760	 28.814360	-2.277743	-0.756546	 16.734330	 11.183430	-69.644330	 15.156180	 15.449050	-14.800120	-169.128400	-11.051210	-165.052100	-38.963430	-0.102512	-4.736729	-24.544120	-2.494744	-3.065344	 166.148400	-9.288627	-179.860200	-62.438840	 1.760988	-9.607975	-30.945850	-0.150721	-3.131360	-155.862200	-30.458430	 155.841600	-32.063920	 6.195555	-20.268290	-21.591050	 0.923626	-11.254450	-156.460600	-27.409700	 167.762000	-20.361720	-0.146935	-15.011780	-25.341400	-0.145697	-5.854101	 58.580600	 36.652450	-38.515100	-22.295020	 3.619488	 9.271841	-30.885080	-2.381862	 9.431490
-5.512047	 4.748986	 0.661736	 177.161700	-0.454311	-100.507800	-144.969100	-24.176520	-36.426470	-7.038547	-0.847214	 72.812420	-32.612940	 15.279660	-49.296040	-3.095677	-0.887502	-69.515550	 135.048400	 35.977680	-32.657510	-0.665384	 7.755389	 63.217710	 32.158870	 0.748053	-25.301930	 0.002228	-0.006470	-69.772500	 0.203542	 0.000000	-4.902169	 1.840264	-13.335760	 2.673725	-1.800328	-1.847274	 11.147350	-92.189160	 17.909910	 10.454550	-35.712490	-14.343470	 40.691960	-11.411900	-28.801950	-89.182620	-11.984220	-22.442460	-3.043345	-8.896020	 5.430680	-13.875970	-23.417210	-0.284451	-0.522177	-8.590547	-0.508657	 0.721895	 17.787610	 3.421016	-2.924284	-55.127580	-3.484092	 4.202450	-9.297432	-1.406721	 4.599977	-24.451950	-15.440660	 29.993350	-27.317140	 0.773370	 16.104550	-10.222600	 1.606559	 4.342858	-14.234260	-7.375252	 17.247290	-26.629130	 0.614902	 8.072429	-9.052202	-3.882913	 3.605950	 99.071870	 35.044150	-132.876400	-16.626330	 0.287702	-9.167924	-23.856740	-1.024818	-0.435460	-7.876987	 0.734303	-40.170350	-54.650860	 42.720440	 73.684560	 93.707130	-18.040790	 2.205828	 27.774120	-1.941850	 0.848990	 16.758840	 11.399980	-69.846270	 15.131180	 15.452230	-14.773480	-169.084100	-11.042770	-164.996700	-38.681010	-0.130890	-4.705966	-24.477250	-2.498451	-3.060484	 166.041000	-9.304927	-179.833100	-62.157310	 1.718329	-9.581522	-30.836430	-0.156651	-3.116528	-155.767000	-30.486660	 155.812000	-31.870630	 6.127945	-20.173410	-21.396030	 0.884836	-11.135160	-156.430700	-27.419930	 167.715500	-20.135760	-0.189530	-14.914510	-25.111650	-0.171140	-5.760885	 58.673000	 36.558530	-38.636250	-22.276220	 3.621934	 9.263648	-30.865980	-2.378600	 9.424686
-5.512492	 4.748125	 0.661569	 177.137500	-0.356195	-100.594200	-144.871800	-24.205700	-36.541250	-6.978557	-0.785272	 72.804250	-32.760570	 15.212060	-49.189640	-3.096986	-0.884104	-69.554660	 135.293400	 36.015860	-32.979610	-0.691792	 7.769249	 63.491130	 32.031040	 0.760964	-25.381230	 0.002224	-0.006471	-69.803220	 0.203542	 0.000000	-4.902169	 1.841199	-13.353880	 2.673941	-1.797766	-1.865224	 11.147470	-92.191950	 17.909930	 10.436010	-35.715950	-14.365680	 40.751280	-11.414670	-28.835340	-89.193200	-11.982710	-22.441640	-3.043038	-8.896019	 5.430678	-13.875980	-23.417210	-0.284451	-0.522177	-8.590560	-0.508650	 0.721897	 17.787620	 3.421024	-2.924270	-55.127610	-3.484095	 4.202455	-9.297432	-1.406721	 4.599977	-24.451950	-15.440660	 29.993350	-27.317140	 0.773370	 16.104550	-10.222600	 1.606559	 4.342858	-14.234260	-7.375252	 17.247290	-26.629130	 0.614902	 8.072429	-9.052202	-3.882913	 3.605950	 99.071870	 35.044150	-132.876400	-16.626330	 0.287702	-9.167924	-23.856740	-1.024818	-0.435460	-7.884389	 0.717822	-40.171870	-54.712430	 42.743700	 73.745690	 93.696690	-18.040450	 2.219487	 27.881650	-1.974089	 0.688230	 16.756570	 11.378480	-69.827900	 15.133720	 15.451830	-14.776360	-169.088000	-11.043510	-165.001500	-38.705520	-0.128435	-4.708642	-24.483050	-2.498128	-3.060907	 166.050300	-9.303514	-179.835500	-62.181740	 1.722019	-9.583824	-30.845920	-0.156134	-3.117814	-155.775200	-30.484200	 155.814600	-31.887400	 6.133798	-20.181650	-21.412950	 0.888184	-11.145510	-156.433200	-27.419050	 167.719600	-20.155380	-0.185852	-14.922960	-25.131570	-0.168952	-5.768970	 58.664990	 36.566690	-38.625740	-22.277850	 3.621723	 9.264357	-30.867620	-2.378878	 9.425265
-5.512492	 4.748125	 0.661569	 177.137500	-0.356195	-100.594200	-144.871800	-24.205700	-36.541250	-6.978557	-0.785272	 72.804250	-32.760570	 15.212060	-49.189640	-3.096986	-0.884104	-69.554660	 135.293400	 36.015840	-32.979610	-0.691792	 7.769258	 63.491110	 32.031000	 0.760971	-25.381290	 0.002224	-0.006471	-69.803220	 0.203542	 0.000000	-4.902169	 1.841199	-13.353880	 2.673941	-1.797766	-1.865224	 11.147470	-92.191950	 17.909930	 10.436010	-35.715950	-14.365680	 40.751280	-11.414670	-28.835340	-89.193200	-11.982710	-22.441640	-3.043038	-8.896019	 5.430678	-13.875980	-23.417210	-0.284451	-0.522177	-8.590560	-0.508650	 0.721897	 17.787620	 3.421024	-2.924270	-55.127610	-3.484095	 4.202455	-9.297432	-1.406721	 4.599977	-24.451950	-15.440660	 29.993350	-27.317140	 0.773370	 16.104550	-10.222600	 1.606559	 4.342858	-14.234260	-7.375252	 17.247290	-26.629130	 0.614902	 8.072429	-9.052202	-3.882913	 3.605950	 99.071870	 35.044150	-132.876400	-16.626330	 0.287702	-9.167924	-23.856740	-1.024818	-0.435460	-7.884389	 0.717822	-40.171870	-54.712430	 42.743700	 73.745690	 93.696690	-18.040450	 2.219487	 27.881650	-1.974089	 0.688230	 16.756570	 11.378480	-69.827900	 15.133720	 15.451830	-14.776360	-169.088000	-11.043510	-165.001500	-38.705520	-0.128435	-4.708642	-24.483050	-2.498128	-3.060907	 166.050300	-9.303514	-179.835500	-62.181740	 1.722019	-9.583824	-30.845920	-0.156134	-3.117814	-155.775200	-30.484200	 155.814600	-31.887400	 6.133798	-20.181650	-21.412950	 0.888184	-11.145510	-156.433200	-27.419050	 167.719600	-20.155380	-0.185852	-14.922960	-25.131570	-0.168952	-5.768970	 58.664990	 36.566690	-38.625740	-22.277850	 3.621723	 9.264357	-30.867620	-2.378878	 9.425265
